<svg width="932" height="41" viewBox="0 0 932 41" fill="none" xmlns="http://www.w3.org/2000/svg">
<g filter="url(#filter0_iii_51_13248)">
<path d="M6.88293 40C6.4796 40 6.16793 39.8717 5.94793 39.615C5.7646 39.3583 5.7096 39.0283 5.78293 38.625L8.25793 26.8L0.502931 3.26C0.356265 2.82 0.429598 2.41667 0.722931 2.05C1.01626 1.68333 1.40126 1.5 1.87793 1.5H8.31293C8.8996 1.5 9.30293 1.64666 9.52293 1.94C9.7796 2.19666 9.9446 2.435 10.0179 2.655L14.8579 16.79L25.6929 2.655C25.8396 2.435 26.0963 2.19666 26.4629 1.94C26.8296 1.64666 27.2879 1.5 27.8379 1.5H35.2629C35.8129 1.5 36.1246 1.70166 36.1979 2.105C36.3079 2.50833 36.2163 2.89333 35.9229 3.26L18.1579 26.8L15.6279 38.625C15.5546 39.0283 15.3529 39.3583 15.0229 39.615C14.7296 39.8717 14.3813 40 13.9779 40H6.88293ZM47.9318 40.55C45.6218 40.55 43.4768 40.2383 41.4968 39.615C39.5168 38.9917 37.8485 38.0567 36.4918 36.81C35.1352 35.5633 34.1635 34.005 33.5768 32.135C33.0268 30.265 32.9535 28.0833 33.3568 25.59C33.6502 24.0133 33.9618 22.4367 34.2918 20.86C34.6585 19.2833 35.0252 17.6883 35.3918 16.075C36.6018 11.125 38.7835 7.36666 41.9368 4.8C45.0902 2.23333 49.3435 0.949998 54.6968 0.949998C57.0068 0.949998 59.1335 1.28 61.0768 1.94C63.0568 2.56333 64.7252 3.51667 66.0818 4.8C67.4752 6.08333 68.4468 7.66 68.9968 9.53C69.5835 11.4 69.6568 13.5817 69.2168 16.075C68.9602 17.6883 68.6485 19.2833 68.2818 20.86C67.9518 22.4367 67.6035 24.0133 67.2368 25.59C65.9902 30.6133 63.7902 34.3717 60.6368 36.865C57.4835 39.3217 53.2485 40.55 47.9318 40.55ZM48.6468 32.63C50.6268 32.63 52.3685 32.0433 53.8718 30.87C55.3752 29.6967 56.4385 27.8267 57.0618 25.26C57.4652 23.6467 57.8135 22.125 58.1068 20.695C58.4368 19.265 58.7302 17.78 58.9868 16.24C59.4635 13.6733 59.2435 11.8033 58.3268 10.63C57.4102 9.45666 55.9618 8.87 53.9818 8.87C52.0018 8.87 50.2602 9.45666 48.7568 10.63C47.2902 11.8033 46.2452 13.6733 45.6218 16.24C45.2185 17.78 44.8518 19.265 44.5218 20.695C44.2285 22.125 43.9352 23.6467 43.6418 25.26C43.2018 27.8267 43.4218 29.6967 44.3018 30.87C45.1818 32.0433 46.6302 32.63 48.6468 32.63ZM87.4171 40.55C85.0704 40.55 82.9071 40.2567 80.9271 39.67C78.9838 39.0467 77.3338 38.1117 75.9771 36.865C74.6571 35.6183 73.7588 34.0417 73.2821 32.135C72.8054 30.2283 72.8421 27.955 73.3921 25.315L78.1221 2.875C78.1954 2.47166 78.3971 2.14166 78.7271 1.885C79.0571 1.62833 79.4238 1.5 79.8271 1.5H86.9221C87.3254 1.5 87.6188 1.62833 87.8021 1.885C88.0221 2.14166 88.0954 2.47166 88.0221 2.875L83.2371 25.26C82.7238 27.6433 82.8521 29.44 83.6221 30.65C84.3921 31.8233 85.8954 32.41 88.1321 32.41C90.3321 32.41 92.1288 31.8233 93.5221 30.65C94.9154 29.44 95.8688 27.6433 96.3821 25.26L101.167 2.875C101.24 2.47166 101.442 2.14166 101.772 1.885C102.102 1.62833 102.45 1.5 102.817 1.5H109.912C110.315 1.5 110.609 1.62833 110.792 1.885C111.012 2.14166 111.085 2.47166 111.012 2.875L106.282 25.315C105.145 30.5583 103.055 34.4083 100.012 36.865C97.0054 39.3217 92.8071 40.55 87.4171 40.55ZM112.641 40C112.237 40 111.926 39.8717 111.706 39.615C111.522 39.3583 111.467 39.0283 111.541 38.625L119.131 2.875C119.204 2.47166 119.406 2.14166 119.736 1.885C120.066 1.62833 120.432 1.5 120.836 1.5H135.796C140.526 1.5 144.009 2.6 146.246 4.8C148.519 6.96333 149.234 10.0433 148.391 14.04C147.841 16.6433 146.741 18.8433 145.091 20.64C143.477 22.4367 141.552 23.7933 139.316 24.71L143.991 38.24C144.027 38.35 144.046 38.4417 144.046 38.515C144.046 38.5883 144.027 38.6983 143.991 38.845C143.954 39.1383 143.789 39.4133 143.496 39.67C143.202 39.89 142.891 40 142.561 40H135.301C134.604 40 134.127 39.835 133.871 39.505C133.651 39.1383 133.486 38.8083 133.376 38.515L129.691 26.415H124.026L121.441 38.625C121.367 39.0283 121.166 39.3583 120.836 39.615C120.506 39.8717 120.139 40 119.736 40H112.641ZM125.676 18.66H132.056C133.779 18.66 135.154 18.2383 136.181 17.395C137.207 16.5517 137.886 15.3967 138.216 13.93C138.509 12.5 138.326 11.345 137.666 10.465C137.042 9.585 135.832 9.145 134.036 9.145H127.711L125.676 18.66ZM176.947 40.55C174.453 40.55 172.198 40.2383 170.182 39.615C168.202 38.9917 166.552 38.0567 165.232 36.81C163.912 35.5267 162.995 33.9683 162.482 32.135C161.968 30.265 161.913 28.1017 162.317 25.645C162.573 24.1417 162.885 22.5283 163.252 20.805C163.655 19.0817 164.04 17.4317 164.407 15.855C165.213 12.665 166.46 9.97 168.147 7.77C169.833 5.53333 171.96 3.84667 174.527 2.71C177.13 1.53666 180.192 0.949998 183.712 0.949998C186.058 0.949998 188.24 1.24333 190.257 1.83C192.273 2.41667 193.978 3.29666 195.372 4.47C196.802 5.60667 197.828 7 198.452 8.65C199.112 10.2633 199.24 12.115 198.837 14.205C198.763 14.535 198.598 14.81 198.342 15.03C198.122 15.25 197.847 15.36 197.517 15.36H190.037C189.56 15.36 189.193 15.2683 188.937 15.085C188.717 14.865 188.57 14.48 188.497 13.93C188.533 12.0233 188.038 10.7033 187.012 9.97C185.985 9.23666 184.628 8.87 182.942 8.87C180.925 8.87 179.183 9.43833 177.717 10.575C176.25 11.675 175.205 13.5267 174.582 16.13C173.812 19.1367 173.152 22.2167 172.602 25.37C172.125 27.9733 172.345 29.8433 173.262 30.98C174.178 32.08 175.645 32.63 177.662 32.63C179.348 32.63 180.87 32.2633 182.227 31.53C183.583 30.7967 184.702 29.4767 185.582 27.57C185.875 27.02 186.168 26.6533 186.462 26.47C186.755 26.25 187.14 26.14 187.617 26.14H195.097C195.427 26.14 195.683 26.25 195.867 26.47C196.05 26.69 196.105 26.965 196.032 27.295C195.518 29.3483 194.712 31.2 193.612 32.85C192.548 34.4633 191.192 35.8567 189.542 37.03C187.928 38.1667 186.077 39.0467 183.987 39.67C181.897 40.2567 179.55 40.55 176.947 40.55ZM200.386 40C200.02 40 199.726 39.8717 199.506 39.615C199.286 39.3583 199.213 39.0283 199.286 38.625L206.876 2.875C206.95 2.47166 207.151 2.14166 207.481 1.885C207.811 1.62833 208.16 1.5 208.526 1.5H215.621C216.025 1.5 216.336 1.62833 216.556 1.885C216.776 2.14166 216.85 2.47166 216.776 2.875L213.916 16.13H227.501L230.306 2.875C230.38 2.47166 230.563 2.14166 230.856 1.885C231.186 1.62833 231.553 1.5 231.956 1.5H239.051C239.455 1.5 239.766 1.62833 239.986 1.885C240.206 2.14166 240.28 2.47166 240.206 2.875L232.561 38.625C232.488 39.0283 232.286 39.3583 231.956 39.615C231.663 39.8717 231.315 40 230.911 40H223.816C223.413 40 223.101 39.8717 222.881 39.615C222.698 39.3583 222.643 39.0283 222.716 38.625L225.631 24.93H212.101L209.131 38.625C209.058 39.0283 208.856 39.3583 208.526 39.615C208.233 39.8717 207.885 40 207.481 40H200.386ZM237.903 40C237.463 40 237.151 39.8167 236.968 39.45C236.784 39.0833 236.803 38.7167 237.023 38.35L257.428 3.04C257.648 2.63666 257.959 2.28833 258.363 1.995C258.766 1.665 259.279 1.5 259.903 1.5H268.373C268.996 1.5 269.436 1.665 269.693 1.995C269.986 2.28833 270.151 2.63666 270.188 3.04L275.578 38.35C275.688 38.8633 275.596 39.2667 275.303 39.56C275.009 39.8533 274.679 40 274.313 40H267.658C267.108 40 266.704 39.8717 266.448 39.615C266.228 39.3583 266.081 39.065 266.008 38.735L265.073 33.235H250.388L247.088 38.845C246.904 39.1017 246.648 39.3583 246.318 39.615C246.024 39.8717 245.603 40 245.053 40H237.903ZM254.293 25.315H264.523L262.488 10.795L254.293 25.315ZM280.953 40C280.586 40 280.293 39.8717 280.073 39.615C279.853 39.3583 279.779 39.0283 279.853 38.625L287.443 2.875C287.516 2.47166 287.699 2.14166 287.993 1.885C288.323 1.62833 288.689 1.5 289.093 1.5H294.923C295.509 1.5 295.913 1.62833 296.133 1.885C296.353 2.14166 296.499 2.36166 296.573 2.545L305.538 23.83L309.993 2.875C310.066 2.47166 310.268 2.14166 310.598 1.885C310.928 1.62833 311.276 1.5 311.643 1.5H318.243C318.646 1.5 318.939 1.62833 319.123 1.885C319.343 2.14166 319.416 2.47166 319.343 2.875L311.753 38.625C311.679 38.9917 311.478 39.3217 311.148 39.615C310.854 39.8717 310.506 40 310.103 40H304.273C303.686 40 303.283 39.8717 303.063 39.615C302.843 39.3217 302.696 39.1017 302.623 38.955L293.548 18.44L289.203 38.625C289.129 39.0283 288.928 39.3583 288.598 39.615C288.304 39.8717 287.956 40 287.553 40H280.953ZM335.609 40.55C333.116 40.55 330.861 40.2383 328.844 39.615C326.864 38.9917 325.214 38.0567 323.894 36.81C322.574 35.5267 321.657 33.9683 321.144 32.135C320.631 30.265 320.576 28.1017 320.979 25.645C321.236 24.1417 321.547 22.5283 321.914 20.805C322.317 19.0817 322.702 17.4317 323.069 15.855C323.876 12.665 325.122 9.97 326.809 7.77C328.496 5.53333 330.622 3.84667 333.189 2.71C335.792 1.53666 338.854 0.949998 342.374 0.949998C344.721 0.949998 346.902 1.24333 348.919 1.83C350.936 2.41667 352.641 3.29666 354.034 4.47C355.464 5.60667 356.491 7 357.114 8.65C357.774 10.2633 357.902 12.115 357.499 14.205C357.426 14.535 357.261 14.81 357.004 15.03C356.784 15.25 356.509 15.36 356.179 15.36H348.699C348.222 15.36 347.856 15.2683 347.599 15.085C347.379 14.865 347.232 14.48 347.159 13.93C347.196 12.0233 346.701 10.7033 345.674 9.97C344.647 9.23666 343.291 8.87 341.604 8.87C339.587 8.87 337.846 9.43833 336.379 10.575C334.912 11.675 333.867 13.5267 333.244 16.13C332.474 19.1367 331.814 22.2167 331.264 25.37C330.787 27.9733 331.007 29.8433 331.924 30.98C332.841 32.08 334.307 32.63 336.324 32.63C338.011 32.63 339.532 32.2633 340.889 31.53C342.246 30.7967 343.364 29.4767 344.244 27.57C344.537 27.02 344.831 26.6533 345.124 26.47C345.417 26.25 345.802 26.14 346.279 26.14H353.759C354.089 26.14 354.346 26.25 354.529 26.47C354.712 26.69 354.767 26.965 354.694 27.295C354.181 29.3483 353.374 31.2 352.274 32.85C351.211 34.4633 349.854 35.8567 348.204 37.03C346.591 38.1667 344.739 39.0467 342.649 39.67C340.559 40.2567 338.212 40.55 335.609 40.55ZM359.048 40C358.682 40 358.388 39.8717 358.168 39.615C357.948 39.3583 357.875 39.0283 357.948 38.625L365.538 2.875C365.612 2.47166 365.813 2.14166 366.143 1.885C366.473 1.62833 366.822 1.5 367.188 1.5H392.873C393.277 1.5 393.57 1.62833 393.753 1.885C393.973 2.14166 394.047 2.47166 393.973 2.875L392.928 8.045C392.855 8.44833 392.653 8.77833 392.323 9.035C391.993 9.29166 391.627 9.42 391.223 9.42H373.678L372.083 16.845H388.363C388.767 16.845 389.078 16.9917 389.298 17.285C389.518 17.5417 389.592 17.8717 389.518 18.275L388.473 23.06C388.4 23.4267 388.198 23.7567 387.868 24.05C387.575 24.3067 387.227 24.435 386.823 24.435H370.488L368.893 32.08H386.823C387.227 32.08 387.52 32.2083 387.703 32.465C387.923 32.7217 387.997 33.0517 387.923 33.455L386.823 38.625C386.75 39.0283 386.548 39.3583 386.218 39.615C385.925 39.8717 385.577 40 385.173 40H359.048ZM413.064 40C412.661 40 412.349 39.8717 412.129 39.615C411.909 39.3583 411.836 39.0283 411.909 38.625L418.014 10.135H408.224C407.857 10.135 407.564 10.0067 407.344 9.75C407.124 9.45667 407.051 9.12667 407.124 8.76L408.389 2.875C408.462 2.47166 408.646 2.14166 408.939 1.885C409.269 1.62833 409.636 1.5 410.039 1.5H439.629C440.032 1.5 440.326 1.62833 440.509 1.885C440.729 2.14166 440.802 2.47166 440.729 2.875L439.464 8.76C439.391 9.12667 439.189 9.45667 438.859 9.75C438.566 10.0067 438.217 10.135 437.814 10.135H428.024L421.974 38.625C421.901 39.0283 421.699 39.3583 421.369 39.615C421.076 39.8717 420.727 40 420.324 40H413.064ZM454.04 40.55C451.73 40.55 449.585 40.2383 447.605 39.615C445.625 38.9917 443.957 38.0567 442.6 36.81C441.244 35.5633 440.272 34.005 439.685 32.135C439.135 30.265 439.062 28.0833 439.465 25.59C439.759 24.0133 440.07 22.4367 440.4 20.86C440.767 19.2833 441.134 17.6883 441.5 16.075C442.71 11.125 444.892 7.36666 448.045 4.8C451.199 2.23333 455.452 0.949998 460.805 0.949998C463.115 0.949998 465.242 1.28 467.185 1.94C469.165 2.56333 470.834 3.51667 472.19 4.8C473.584 6.08333 474.555 7.66 475.105 9.53C475.692 11.4 475.765 13.5817 475.325 16.075C475.069 17.6883 474.757 19.2833 474.39 20.86C474.06 22.4367 473.712 24.0133 473.345 25.59C472.099 30.6133 469.899 34.3717 466.745 36.865C463.592 39.3217 459.357 40.55 454.04 40.55ZM454.755 32.63C456.735 32.63 458.477 32.0433 459.98 30.87C461.484 29.6967 462.547 27.8267 463.17 25.26C463.574 23.6467 463.922 22.125 464.215 20.695C464.545 19.265 464.839 17.78 465.095 16.24C465.572 13.6733 465.352 11.8033 464.435 10.63C463.519 9.45666 462.07 8.87 460.09 8.87C458.11 8.87 456.369 9.45666 454.865 10.63C453.399 11.8033 452.354 13.6733 451.73 16.24C451.327 17.78 450.96 19.265 450.63 20.695C450.337 22.125 450.044 23.6467 449.75 25.26C449.31 27.8267 449.53 29.6967 450.41 30.87C451.29 32.0433 452.739 32.63 454.755 32.63ZM503.689 40.55C500.023 40.55 497.016 40.0367 494.669 39.01C492.359 37.9833 490.691 36.6267 489.664 34.94C488.674 33.2167 488.326 31.4017 488.619 29.495C488.693 29.2017 488.839 28.945 489.059 28.725C489.316 28.4683 489.609 28.34 489.939 28.34H496.979C497.493 28.34 497.859 28.4317 498.079 28.615C498.299 28.7983 498.519 29.0367 498.739 29.33C498.886 29.88 499.179 30.4117 499.619 30.925C500.059 31.4383 500.664 31.86 501.434 32.19C502.241 32.4833 503.231 32.63 504.404 32.63C506.531 32.63 508.236 32.3 509.519 31.64C510.803 30.98 511.554 30.0817 511.774 28.945C511.994 28.1383 511.848 27.4783 511.334 26.965C510.858 26.415 509.996 25.9383 508.749 25.535C507.539 25.095 505.908 24.655 503.854 24.215C501.178 23.6283 498.978 22.8217 497.254 21.795C495.531 20.7317 494.321 19.3933 493.624 17.78C492.964 16.13 492.873 14.1683 493.349 11.895C494.083 8.52166 495.898 5.86333 498.794 3.92C501.691 1.94 505.449 0.949998 510.069 0.949998C512.453 0.949998 514.561 1.28 516.394 1.94C518.264 2.6 519.823 3.48 521.069 4.58C522.316 5.68 523.214 6.85333 523.764 8.1C524.314 9.31 524.498 10.5017 524.314 11.675C524.278 11.9683 524.131 12.2433 523.874 12.5C523.618 12.72 523.324 12.83 522.994 12.83H515.624C515.258 12.83 514.928 12.7567 514.634 12.61C514.378 12.4633 514.158 12.225 513.974 11.895C513.974 11.0883 513.553 10.3917 512.709 9.805C511.866 9.18166 510.748 8.87 509.354 8.87C507.778 8.87 506.458 9.16333 505.394 9.75C504.331 10.3 503.671 11.1617 503.414 12.335C503.231 13.0683 503.323 13.71 503.689 14.26C504.093 14.81 504.826 15.2867 505.889 15.69C506.989 16.0933 508.493 16.515 510.399 16.955C513.626 17.5783 516.156 18.4217 517.989 19.485C519.823 20.5117 521.051 21.8133 521.674 23.39C522.334 24.9667 522.426 26.8917 521.949 29.165C521.143 32.905 519.181 35.7467 516.064 37.69C512.984 39.5967 508.859 40.55 503.689 40.55ZM526.465 40C526.099 40 525.805 39.8717 525.585 39.615C525.365 39.3583 525.292 39.0283 525.365 38.625L532.955 2.875C533.029 2.47166 533.23 2.14166 533.56 1.885C533.89 1.62833 534.239 1.5 534.605 1.5H541.7C542.104 1.5 542.415 1.62833 542.635 1.885C542.855 2.14166 542.929 2.47166 542.855 2.875L539.995 16.13H553.58L556.385 2.875C556.459 2.47166 556.642 2.14166 556.935 1.885C557.265 1.62833 557.632 1.5 558.035 1.5H565.13C565.534 1.5 565.845 1.62833 566.065 1.885C566.285 2.14166 566.359 2.47166 566.285 2.875L558.64 38.625C558.567 39.0283 558.365 39.3583 558.035 39.615C557.742 39.8717 557.394 40 556.99 40H549.895C549.492 40 549.18 39.8717 548.96 39.615C548.777 39.3583 548.722 39.0283 548.795 38.625L551.71 24.93H538.18L535.21 38.625C535.137 39.0283 534.935 39.3583 534.605 39.615C534.312 39.8717 533.964 40 533.56 40H526.465ZM567.447 40C567.043 40 566.732 39.8717 566.512 39.615C566.292 39.3583 566.218 39.0283 566.292 38.625L573.937 2.875C574.01 2.47166 574.212 2.14166 574.542 1.885C574.872 1.62833 575.22 1.5 575.587 1.5H583.012C583.378 1.5 583.672 1.62833 583.892 1.885C584.112 2.14166 584.185 2.47166 584.112 2.875L576.467 38.625C576.393 39.0283 576.192 39.3583 575.862 39.615C575.568 39.8717 575.238 40 574.872 40H567.447ZM585.279 40C584.912 40 584.619 39.8717 584.399 39.615C584.179 39.3583 584.105 39.0283 584.179 38.625L591.769 2.875C591.842 2.47166 592.025 2.14166 592.319 1.885C592.649 1.62833 593.015 1.5 593.419 1.5H599.249C599.835 1.5 600.239 1.62833 600.459 1.885C600.679 2.14166 600.825 2.36166 600.899 2.545L609.864 23.83L614.319 2.875C614.392 2.47166 614.594 2.14166 614.924 1.885C615.254 1.62833 615.602 1.5 615.969 1.5H622.569C622.972 1.5 623.265 1.62833 623.449 1.885C623.669 2.14166 623.742 2.47166 623.669 2.875L616.079 38.625C616.005 38.9917 615.804 39.3217 615.474 39.615C615.18 39.8717 614.832 40 614.429 40H608.599C608.012 40 607.609 39.8717 607.389 39.615C607.169 39.3217 607.022 39.1017 606.949 38.955L597.874 18.44L593.529 38.625C593.455 39.0283 593.254 39.3583 592.924 39.615C592.63 39.8717 592.282 40 591.879 40H585.279ZM624.81 40C624.443 40 624.15 39.8717 623.93 39.615C623.71 39.3583 623.637 39.0283 623.71 38.625L631.3 2.875C631.373 2.47166 631.575 2.14166 631.905 1.885C632.235 1.62833 632.583 1.5 632.95 1.5H658.635C659.038 1.5 659.332 1.62833 659.515 1.885C659.735 2.14166 659.808 2.47166 659.735 2.875L658.69 8.045C658.617 8.44833 658.415 8.77833 658.085 9.035C657.755 9.29166 657.388 9.42 656.985 9.42H639.44L637.845 16.845H654.125C654.528 16.845 654.84 16.9917 655.06 17.285C655.28 17.5417 655.353 17.8717 655.28 18.275L654.235 23.06C654.162 23.4267 653.96 23.7567 653.63 24.05C653.337 24.3067 652.988 24.435 652.585 24.435H636.25L634.655 32.08H652.585C652.988 32.08 653.282 32.2083 653.465 32.465C653.685 32.7217 653.758 33.0517 653.685 33.455L652.585 38.625C652.512 39.0283 652.31 39.3583 651.98 39.615C651.687 39.8717 651.338 40 650.935 40H624.81ZM678.826 40C678.422 40 678.111 39.8717 677.891 39.615C677.671 39.3583 677.597 39.0283 677.671 38.625L683.776 10.135H673.986C673.619 10.135 673.326 10.0067 673.106 9.75C672.886 9.45667 672.812 9.12667 672.886 8.76L674.151 2.875C674.224 2.47166 674.407 2.14166 674.701 1.885C675.031 1.62833 675.397 1.5 675.801 1.5H705.391C705.794 1.5 706.087 1.62833 706.271 1.885C706.491 2.14166 706.564 2.47166 706.491 2.875L705.226 8.76C705.152 9.12667 704.951 9.45667 704.621 9.75C704.327 10.0067 703.979 10.135 703.576 10.135H693.786L687.736 38.625C687.662 39.0283 687.461 39.3583 687.131 39.615C686.837 39.8717 686.489 40 686.086 40H678.826ZM719.802 40.55C717.492 40.55 715.347 40.2383 713.367 39.615C711.387 38.9917 709.719 38.0567 708.362 36.81C707.005 35.5633 706.034 34.005 705.447 32.135C704.897 30.265 704.824 28.0833 705.227 25.59C705.52 24.0133 705.832 22.4367 706.162 20.86C706.529 19.2833 706.895 17.6883 707.262 16.075C708.472 11.125 710.654 7.36666 713.807 4.8C716.96 2.23333 721.214 0.949998 726.567 0.949998C728.877 0.949998 731.004 1.28 732.947 1.94C734.927 2.56333 736.595 3.51667 737.952 4.8C739.345 6.08333 740.317 7.66 740.867 9.53C741.454 11.4 741.527 13.5817 741.087 16.075C740.83 17.6883 740.519 19.2833 740.152 20.86C739.822 22.4367 739.474 24.0133 739.107 25.59C737.86 30.6133 735.66 34.3717 732.507 36.865C729.354 39.3217 725.119 40.55 719.802 40.55ZM720.517 32.63C722.497 32.63 724.239 32.0433 725.742 30.87C727.245 29.6967 728.309 27.8267 728.932 25.26C729.335 23.6467 729.684 22.125 729.977 20.695C730.307 19.265 730.6 17.78 730.857 16.24C731.334 13.6733 731.114 11.8033 730.197 10.63C729.28 9.45666 727.832 8.87 725.852 8.87C723.872 8.87 722.13 9.45666 720.627 10.63C719.16 11.8033 718.115 13.6733 717.492 16.24C717.089 17.78 716.722 19.265 716.392 20.695C716.099 22.125 715.805 23.6467 715.512 25.26C715.072 27.8267 715.292 29.6967 716.172 30.87C717.052 32.0433 718.5 32.63 720.517 32.63ZM743.887 40C743.521 40 743.227 39.8717 743.007 39.615C742.787 39.3583 742.714 39.0283 742.787 38.625L750.377 2.875C750.451 2.47166 750.634 2.14166 750.927 1.885C751.257 1.62833 751.624 1.5 752.027 1.5H757.857C758.444 1.5 758.847 1.62833 759.067 1.885C759.287 2.14166 759.434 2.36166 759.507 2.545L768.472 23.83L772.927 2.875C773.001 2.47166 773.202 2.14166 773.532 1.885C773.862 1.62833 774.211 1.5 774.577 1.5H781.177C781.581 1.5 781.874 1.62833 782.057 1.885C782.277 2.14166 782.351 2.47166 782.277 2.875L774.687 38.625C774.614 38.9917 774.412 39.3217 774.082 39.615C773.789 39.8717 773.441 40 773.037 40H767.207C766.621 40 766.217 39.8717 765.997 39.615C765.777 39.3217 765.631 39.1017 765.557 38.955L756.482 18.44L752.137 38.625C752.064 39.0283 751.862 39.3583 751.532 39.615C751.239 39.8717 750.891 40 750.487 40H743.887ZM783.418 40C783.015 40 782.703 39.8717 782.483 39.615C782.263 39.3583 782.19 39.0283 782.263 38.625L789.908 2.875C789.982 2.47166 790.183 2.14166 790.513 1.885C790.843 1.62833 791.192 1.5 791.558 1.5H798.983C799.35 1.5 799.643 1.62833 799.863 1.885C800.083 2.14166 800.157 2.47166 800.083 2.875L792.438 38.625C792.365 39.0283 792.163 39.3583 791.833 39.615C791.54 39.8717 791.21 40 790.843 40H783.418ZM816.43 40.55C812.947 40.55 810.069 39.9817 807.795 38.845C805.559 37.6717 803.982 35.985 803.065 33.785C802.149 31.5483 801.965 28.835 802.515 25.645C802.809 24.0683 803.139 22.4 803.505 20.64C803.909 18.8433 804.294 17.1383 804.66 15.525C805.43 12.4083 806.75 9.76833 808.62 7.605C810.49 5.44167 812.8 3.79167 815.55 2.655C818.337 1.51833 821.435 0.949998 824.845 0.949998C827.595 0.949998 829.96 1.29833 831.94 1.995C833.92 2.655 835.515 3.55333 836.725 4.69C837.935 5.82667 838.779 7.07333 839.255 8.43C839.732 9.78667 839.842 11.125 839.585 12.445C839.549 12.775 839.384 13.05 839.09 13.27C838.834 13.49 838.522 13.6 838.155 13.6H830.125C829.759 13.6 829.484 13.545 829.3 13.435C829.117 13.2883 828.97 13.0867 828.86 12.83C828.75 12.28 828.512 11.7117 828.145 11.125C827.779 10.5017 827.21 9.97 826.44 9.53C825.67 9.09 824.57 8.87 823.14 8.87C821.087 8.87 819.327 9.42 817.86 10.52C816.43 11.62 815.422 13.38 814.835 15.8C814.469 17.3767 814.102 18.9717 813.735 20.585C813.405 22.1617 813.094 23.7567 812.8 25.37C812.36 27.9367 812.635 29.7883 813.625 30.925C814.652 32.0617 816.21 32.63 818.3 32.63C819.657 32.63 820.922 32.3917 822.095 31.915C823.305 31.4383 824.332 30.705 825.175 29.715C826.019 28.6883 826.587 27.3867 826.88 25.81L827.1 24.765H821.93C821.527 24.765 821.215 24.6367 820.995 24.38C820.812 24.0867 820.757 23.7383 820.83 23.335L821.71 19.265C821.784 18.8617 821.985 18.5317 822.315 18.275C822.645 17.9817 822.994 17.835 823.36 17.835H837.275C837.679 17.835 837.972 17.9817 838.155 18.275C838.339 18.5317 838.394 18.8617 838.32 19.265L837 25.535C836.377 28.6883 835.094 31.3833 833.15 33.62C831.244 35.8567 828.842 37.58 825.945 38.79C823.085 39.9633 819.914 40.55 816.43 40.55ZM840.835 40C840.469 40 840.175 39.8717 839.955 39.615C839.735 39.3583 839.662 39.0283 839.735 38.625L847.325 2.875C847.399 2.47166 847.6 2.14166 847.93 1.885C848.26 1.62833 848.609 1.5 848.975 1.5H856.07C856.474 1.5 856.785 1.62833 857.005 1.885C857.225 2.14166 857.299 2.47166 857.225 2.875L854.365 16.13H867.95L870.755 2.875C870.829 2.47166 871.012 2.14166 871.305 1.885C871.635 1.62833 872.002 1.5 872.405 1.5H879.5C879.904 1.5 880.215 1.62833 880.435 1.885C880.655 2.14166 880.729 2.47166 880.655 2.875L873.01 38.625C872.937 39.0283 872.735 39.3583 872.405 39.615C872.112 39.8717 871.764 40 871.36 40H864.265C863.862 40 863.55 39.8717 863.33 39.615C863.147 39.3583 863.092 39.0283 863.165 38.625L866.08 24.93H852.55L849.58 38.625C849.507 39.0283 849.305 39.3583 848.975 39.615C848.682 39.8717 848.334 40 847.93 40H840.835ZM890.232 40C889.829 40 889.517 39.8717 889.297 39.615C889.077 39.3583 889.004 39.0283 889.077 38.625L895.182 10.135H885.392C885.025 10.135 884.732 10.0067 884.512 9.75C884.292 9.45667 884.219 9.12667 884.292 8.76L885.557 2.875C885.63 2.47166 885.814 2.14166 886.107 1.885C886.437 1.62833 886.804 1.5 887.207 1.5H916.797C917.2 1.5 917.494 1.62833 917.677 1.885C917.897 2.14166 917.97 2.47166 917.897 2.875L916.632 8.76C916.559 9.12667 916.357 9.45667 916.027 9.75C915.734 10.0067 915.385 10.135 914.982 10.135H905.192L899.142 38.625C899.069 39.0283 898.867 39.3583 898.537 39.615C898.244 39.8717 897.895 40 897.492 40H890.232ZM918.499 27.845C918.096 27.845 917.784 27.7167 917.564 27.46C917.381 27.1667 917.326 26.8367 917.399 26.47L922.459 2.875C922.533 2.47166 922.716 2.14166 923.009 1.885C923.339 1.62833 923.706 1.5 924.109 1.5H930.434C930.801 1.5 931.094 1.62833 931.314 1.885C931.534 2.14166 931.608 2.47166 931.534 2.875L926.529 26.47C926.456 26.8367 926.236 27.1667 925.869 27.46C925.539 27.7167 925.191 27.845 924.824 27.845H918.499ZM915.694 40C915.328 40 915.034 39.8717 914.814 39.615C914.594 39.3583 914.521 39.0283 914.594 38.625L916.024 31.86C916.098 31.4567 916.299 31.1267 916.629 30.87C916.959 30.5767 917.326 30.43 917.729 30.43H924.494C924.861 30.43 925.154 30.5767 925.374 30.87C925.594 31.1267 925.668 31.4567 925.594 31.86L924.109 38.625C924.036 39.0283 923.834 39.3583 923.504 39.615C923.211 39.8717 922.863 40 922.459 40H915.694Z" fill="url(#paint0_linear_51_13248)"/>
</g>
<defs>
<filter id="filter0_iii_51_13248" x="0.282928" y="0.028201" width="932.283" height="46.0523" filterUnits="userSpaceOnUse" color-interpolation-filters="sRGB">
<feFlood flood-opacity="0" result="BackgroundImageFix"/>
<feBlend mode="normal" in="SourceGraphic" in2="BackgroundImageFix" result="shape"/>
<feColorMatrix in="SourceAlpha" type="matrix" values="0 0 0 0 0 0 0 0 0 0 0 0 0 0 0 0 0 0 127 0" result="hardAlpha"/>
<feOffset dy="1.8435"/>
<feGaussianBlur stdDeviation="0.460875"/>
<feComposite in2="hardAlpha" operator="arithmetic" k2="-1" k3="1"/>
<feColorMatrix type="matrix" values="0 0 0 0 1 0 0 0 0 1 0 0 0 0 1 0 0 0 1 0"/>
<feBlend mode="normal" in2="shape" result="effect1_innerShadow_51_13248"/>
<feColorMatrix in="SourceAlpha" type="matrix" values="0 0 0 0 0 0 0 0 0 0 0 0 0 0 0 0 0 0 127 0" result="hardAlpha"/>
<feOffset dx="0.92175" dy="-2.76525"/>
<feGaussianBlur stdDeviation="0.460875"/>
<feComposite in2="hardAlpha" operator="arithmetic" k2="-1" k3="1"/>
<feColorMatrix type="matrix" values="0 0 0 0 0 0 0 0 0 0 0 0 0 0 0 0 0 0 0.3 0"/>
<feBlend mode="normal" in2="effect1_innerShadow_51_13248" result="effect2_innerShadow_51_13248"/>
<feColorMatrix in="SourceAlpha" type="matrix" values="0 0 0 0 0 0 0 0 0 0 0 0 0 0 0 0 0 0 127 0" result="hardAlpha"/>
<feOffset dx="0.92175" dy="6.45225"/>
<feGaussianBlur stdDeviation="2.76525"/>
<feComposite in2="hardAlpha" operator="arithmetic" k2="-1" k3="1"/>
<feColorMatrix type="matrix" values="0 0 0 0 1 0 0 0 0 1 0 0 0 0 1 0 0 0 0.7 0"/>
<feBlend mode="normal" in2="effect2_innerShadow_51_13248" result="effect3_innerShadow_51_13248"/>
</filter>
<linearGradient id="paint0_linear_51_13248" x1="270.415" y1="-7.87354" x2="274.18" y2="57.8162" gradientUnits="userSpaceOnUse">
<stop stop-color="#995D02"/>
<stop offset="0.25" stop-color="#DCAA00"/>
<stop offset="0.480967" stop-color="#F8F8F8"/>
<stop offset="0.484461" stop-color="#824004"/>
<stop offset="0.72" stop-color="#D5B300"/>
<stop offset="0.84772" stop-color="#FFF383"/>
<stop offset="1" stop-color="#543200"/>
</linearGradient>
</defs>
</svg>
